<?xml version="1.0" encoding="UTF-8" standalone="no"?>
<!-- Created with Inkscape (http://www.inkscape.org/) -->

<svg
   width="132.29166mm"
   height="132.29167mm"
   viewBox="0 0 132.29166 132.29167"
   version="1.1"
   id="svg1"
   xml:space="preserve"
   xmlns="http://www.w3.org/2000/svg"
   xmlns:svg="http://www.w3.org/2000/svg"><defs
     id="defs1" /><g
     id="layer1"
     transform="translate(-516.77114,-1.0022497)"><g
       id="g10-4-3"
       transform="matrix(1.7354931,0,0,1.7354931,296.92304,-50.183841)"><path
         style="fill:#111512;fill-opacity:1;stroke:none;stroke-width:1.38356"
         d="m 163.65422,40.263809 c 0.59152,2.728744 -2.89135,3.442863 -4.55517,1.947783 -2.36905,-2.128775 -1.3648,-5.774122 1.10665,-7.350562 1.65872,-1.058031 3.9076,-1.007125 5.54228,0.05114 0.54191,0.35082 1.03029,0.802792 1.45514,1.287306 2.73893,3.123594 0.52176,6.817074 0.28016,10.345597 -0.19019,2.777281 1.64979,5.539229 4.42278,6.122836 2.28133,0.480123 4.85865,-0.521801 5.56882,-2.920629 0.62498,-2.111132 -0.50904,-4.968947 -3.10557,-4.657246 -2.77142,0.332696 -2.18087,4.288723 0.73898,3.425627 l 0.12314,0.123165 c -0.93716,1.914902 -3.11098,2.306413 -4.48155,0.490844 -0.8348,-1.105847 -0.91851,-2.701494 -0.33261,-3.939374 2.40575,-5.08272 9.50883,-1.970725 9.72778,2.832722 0.10099,2.215328 -1.30932,3.712934 -2.81447,5.086604 -0.34468,0.314581 -0.52738,0.812092 -0.90128,1.079561 -0.70872,0.50699 -1.68592,0.632535 -2.4295,1.154552 -0.8377,0.588094 -1.40673,1.443273 -2.21691,2.039582 -0.42904,-1.489346 -1.45173,-2.857671 -2.39234,-4.06434 -2.63246,-3.377036 -6.95552,-5.603571 -11.27862,-5.414273 -6.5766,0.287977 -12.43936,6.343331 -12.43936,12.927145 0.54712,-0.227485 2.2647,-0.469284 2.58792,-0.818037 0.4636,-0.500194 0.5512,-1.537139 0.95298,-2.137846 1.25603,-1.877851 3.626,-3.27578 5.94256,-3.058142 3.43301,0.322526 6.78113,3.099381 7.24697,6.629835 0.54559,4.134581 -1.90115,8.04058 -1.95053,12.193023 -0.0791,6.658813 1.97463,13.259743 5.3699,18.966924 1.33053,2.23651 3.02409,4.148286 4.48257,6.281255 -4.25779,1.746829 -8.55656,1.531929 -13.05515,1.478419 -2.67937,-0.0319 -5.43624,0.083 -7.75921,-1.505504 -4.50471,-3.080481 -5.57329,-9.318986 -5.02919,-14.382852 0.34782,-3.237245 1.6035,-6.481799 3.31282,-9.237138 0.88811,-1.431577 2.83371,-3.274388 3.13351,-4.926474 0.31058,-1.711532 -1.83441,-3.148594 -3.26456,-3.448533 l 1.60112,1.354781 v 0.246325 c -1.79029,0.928726 -3.29197,3.165208 -4.59035,4.680149 -3.70132,4.318618 -7.02324,9.542774 -8.29861,15.148907 -0.42607,1.872926 -0.92143,4.290977 -0.28937,6.158093 l 5.17279,-4.064342 c 0.71978,3.71162 2.19283,7.381774 5.29596,9.742238 3.35806,2.55435 7.30261,2.69711 11.3309,2.69711 5.93569,0 11.09273,-0.18766 16.50369,-2.955886 -1.4206,-1.85756 -3.44638,-3.271688 -4.89741,-5.172797 -3.347,-4.385212 -4.58605,-9.603948 -4.58605,-15.025745 0,-1.481994 -0.0381,-2.959741 0.10222,-4.433826 0.0544,-0.571278 -0.0911,-1.226221 0.32065,-1.696611 0.64736,-0.739706 2.24227,-0.957097 3.14879,-1.259274 2.42258,-0.807528 4.78273,-1.741066 7.14338,-2.70956 -1.20862,-3.27644 -2.37826,-6.21063 -2.83272,-9.729786 0.90696,-0.187375 1.26091,-1.210992 1.86843,-1.836311 1.08328,-1.11501 2.77296,-1.689708 4.28966,-1.215553 1.52244,0.475944 2.71738,1.94306 2.80687,3.544512 0.0739,1.322884 -0.98576,3.103868 -2.43739,3.167898 -0.89082,0.0393 -2.18381,-1.017762 -1.42406,-1.918035 0.36898,-0.437216 1.05285,-0.333727 1.29929,-0.893774 0.53795,-1.22253 -1.06404,-1.74193 -1.96898,-1.522039 -3.44729,0.837659 -1.97742,5.880138 0.61581,6.739023 2.98172,0.98755 6.05903,-1.449166 6.38303,-4.464617 0.33878,-3.152759 -1.39819,-5.993827 -4.41244,-7.020225 4.4751,-4.487454 3.33707,-13.227496 -3.81802,-14.249804 -1.67421,-0.239206 -3.25249,0.103762 -4.8033,0.702 0,-3.892233 -1.80005,-7.524411 -5.66544,-8.90481 -4.90836,-1.752853 -10.70899,2.178584 -10.33458,7.550031 0.18982,2.723481 2.20687,5.58053 5.03861,5.997869 3.63729,0.536059 7.17963,-2.738011 5.80382,-6.490518 -0.21405,-0.583816 -0.53355,-1.148153 -1.00584,-1.560616 -0.3798,-0.331717 -0.85581,-0.600353 -1.34946,-0.714268 -1.36502,-0.31501 -2.80971,0.267995 -3.26767,1.659076 -0.34844,1.058391 0.18284,2.689624 1.54341,2.540972 0.60799,-0.06643 1.20517,-0.391707 1.72426,-0.693544 m -20.69118,5.542283 c -2.63686,0.208121 -5.03938,1.424073 -6.15325,3.941179 -1.4046,3.174138 0.25242,7.592171 4.05949,7.871239 2.94941,0.216203 6.18784,-3.027252 4.08896,-5.895801 -1.04748,-1.431599 -4.66809,-1.69183 -4.11195,0.857187 0.33005,1.512717 2.55904,0.09968 2.40716,1.232287 -0.35156,2.621872 -3.78505,1.485294 -4.46328,-0.246895 -0.9978,-2.548301 1.15569,-5.084162 3.68023,-5.383009 0.83239,-0.09854 1.54123,0.300802 2.34006,0.414626 2.75002,0.391842 5.5867,1.244917 7.73649,-1.189807 0.44749,-0.506787 0.79731,-1.079943 1.0044,-1.724169 0.68155,-2.120437 0.12161,-4.76544 -1.96699,-5.871476 -1.88936,-1.000518 -4.62881,0.01328 -4.54064,2.422945 0.0995,2.717942 2.72358,1.884892 4.04799,0.738971 1.16328,3.669673 -3.59003,4.612608 -5.58162,2.091948 -3.7245,-4.713918 2.93736,-10.522206 7.55222,-7.264745 0.30614,-0.291173 0.40372,-0.584417 0.53495,-0.985296 0.11912,-0.363793 0.45901,-0.9454 0.29792,-1.328551 -0.54344,-1.292621 -3.655,-1.283525 -4.77404,-1.256042 -5.29581,0.130068 -9.22688,7.085263 -6.1581,11.575409 m 11.45407,12.381945 c -2.39436,0.570299 -1.50827,4.357099 0.86214,3.809276 2.40335,-0.555439 1.54631,-4.382927 -0.86214,-3.809276"
         id="path7-7-3" /><path
         style="display:inline;fill:#108e4c;fill-opacity:1;stroke:none;stroke-width:0.527522;stroke-linejoin:round;stroke-dasharray:none;stroke-opacity:1;paint-order:markers stroke fill"
         d="m 180.35391,101.43024 c -0.30025,-0.0949 -0.46706,-0.18776 -1.49763,-0.83315 -2.40832,-1.508205 -4.68953,-3.39308 -6.2445,-5.159582 -2.94845,-3.34955 -4.74505,-7.307346 -5.37596,-11.842918 -0.10427,-0.749627 -0.11828,-1.085962 -0.12514,-3.006886 -0.004,-1.208497 -0.0378,-2.543883 -0.0759,-3.026393 -0.0788,-0.998173 -0.0514,-1.745405 0.0817,-2.219708 0.20065,-0.715074 0.69373,-0.984239 2.75567,-1.504269 0.29894,-0.0754 1.48949,-0.491 2.64566,-0.923571 3.33478,-1.247669 4.46288,-1.721852 5.69106,-2.392141 1.3843,-0.755499 2.02996,-1.041881 2.52884,-1.121654 0.32779,-0.05241 0.81446,0.106599 1.61794,0.52865 0.9876,0.518748 1.94632,0.942884 3.88013,1.716551 2.31677,0.926877 5.09048,1.825493 6.76274,2.190968 1.01292,0.221376 1.31101,0.370244 1.46766,0.732933 0.0878,0.203073 0.0907,0.442584 0.0485,4.040422 -0.0246,2.103499 -0.059,3.907632 -0.0764,4.00918 -0.0174,0.101552 -0.0792,0.516975 -0.13738,0.923168 -0.74067,5.17231 -3.41723,9.995035 -7.76914,13.998684 -2.81187,2.586846 -3.87155,3.364206 -5.18328,3.802336 -0.52538,0.17548 -0.67452,0.18858 -0.99452,0.0874 z m 0.7687,-3.593762 c 0.27357,-0.09414 0.63693,-0.34415 1.77454,-1.220979 1.91066,-1.472647 3.33046,-2.842312 4.57315,-4.411656 2.43319,-3.072811 3.82416,-6.86942 4.01657,-10.963161 0.0182,-0.388152 0.0779,-1.073678 0.13255,-1.523391 0.19946,-1.641164 0.18434,-2.244649 -0.0686,-2.738376 -0.1697,-0.331267 -0.51904,-0.53138 -1.29413,-0.741335 -0.70471,-0.190894 -2.78916,-0.897951 -4.23188,-1.435485 -0.54021,-0.201272 -1.52681,-0.634469 -2.20981,-0.970289 -0.67863,-0.33367 -1.47387,-0.693125 -1.7672,-0.798786 -0.4804,-0.17304 -0.5883,-0.192493 -1.08723,-0.19601 -0.64075,-0.0045 -0.86458,0.0689 -1.86314,0.611147 -1.17246,0.636679 -5.35153,2.3253 -7.15682,2.891819 -1.70903,0.536311 -1.89433,0.785999 -1.93862,2.612405 -0.0478,1.973281 0.27718,4.904918 0.75241,6.786108 0.99847,3.952406 3.46004,7.661092 6.82179,10.277963 0.651,0.506751 2.35896,1.660071 2.66249,1.797876 0.26832,0.121825 0.57219,0.129442 0.88394,0.02215 z"
         id="path8-6-8" /><path
         style="display:inline;fill:#108e4c;fill-opacity:1;stroke:none;stroke-width:0.527522;stroke-linejoin:round;stroke-dasharray:none;stroke-opacity:1;paint-order:markers stroke fill"
         d="m 179.40437,90.62535 c -0.087,-0.03086 -0.22948,-0.104241 -0.31652,-0.163072 -0.21295,-0.14393 -2.25018,-2.161064 -3.64898,-3.612969 -1.27357,-1.321913 -1.4276,-1.548344 -1.37211,-2.016962 0.0888,-0.749762 0.88269,-1.525881 1.56234,-1.527379 0.42568,-0.001 0.6514,0.157948 1.61241,1.135038 0.92077,0.936168 2.05612,2.017935 2.30053,2.191967 l 0.1377,0.09805 0.39551,-0.512668 c 0.21754,-0.281967 0.74904,-0.890181 1.18113,-1.351581 0.43208,-0.461404 1.15137,-1.244777 1.59842,-1.740829 0.44705,-0.496055 1.06557,-1.17491 1.37449,-1.50857 0.30891,-0.33366 0.82876,-0.919353 1.15523,-1.301543 0.86547,-1.013189 1.32434,-1.332638 1.91754,-1.334918 0.8299,-0.0033 1.62411,0.705571 1.62411,1.449354 0,0.554926 -0.35149,1.095313 -1.45958,2.244003 -0.43284,0.448698 -1.2595,1.349932 -1.83701,2.002745 -1.33658,1.510839 -1.95305,2.187973 -2.97761,3.270648 -0.45304,0.478725 -1.02766,1.11967 -1.27695,1.424312 -0.94126,1.150288 -1.41454,1.45154 -1.97065,1.254371 z"
         id="path9-3-6" /><path
         style="fill:#ff6600;stroke:none;stroke-width:1.18717;stroke-linejoin:round;stroke-dasharray:none;stroke-opacity:1;paint-order:markers stroke fill"
         d="m 148.46598,59.416906 -9.55392,4.908796 9.46937,2.454395 c 4.28022,-0.886445 3.30042,-6.856302 0.0845,-7.363191 z"
         id="path4-2-89" /></g></g></svg>
