<?xml version="1.0" encoding="UTF-8" standalone="no"?>
<!-- Created with Inkscape (http://www.inkscape.org/) -->

<svg
   width="132.29166mm"
   height="132.29167mm"
   viewBox="0 0 132.29166 132.29167"
   version="1.1"
   id="svg1"
   xml:space="preserve"
   xmlns="http://www.w3.org/2000/svg"
   xmlns:svg="http://www.w3.org/2000/svg"><defs
     id="defs1" /><g
     id="layer1"
     transform="translate(-374.47949,-1.0022497)"><g
       id="g10-4-9"
       transform="matrix(1.7354931,0,0,1.7354931,154.63138,-50.183841)"><rect
         style="display:none;fill:#111512;fill-opacity:1;stroke:none;stroke-width:2.64583;stroke-linejoin:round;stroke-dasharray:none;stroke-opacity:1;paint-order:markers stroke fill"
         id="rect12"
         width="131.98199"
         height="132.42636"
         x="374.61282"
         y="1.0022497"
         transform="matrix(0.57620512,0,0,0.57620512,-89.099392,28.916186)" /><path
         style="fill:#ffffff;fill-opacity:1;stroke:#ffffff;stroke-width:1;stroke-linecap:round;stroke-linejoin:round;stroke-dasharray:none;stroke-opacity:1;paint-order:markers stroke fill"
         d="m 188.58064,43.084538 2.0589,-3.507769 4.42284,-1.906395 4.34658,0.305023 5.03289,4.575349 1.75388,5.185394 -2.28768,7.244305 -1.06758,9.074441 2.05891,10.294535 6.48174,13.726046 3.96531,4.651605 c 0,0 -19.44524,6.176722 -27.83338,-1.601372 -8.38814,-7.778093 -2.89772,-22.419209 -2.89772,-22.419209 l 6.17672,-11.209604 c 0,0 0.15252,-1.372606 0.15252,-1.906397 0,-0.533789 -2.36393,-2.135161 -2.36393,-2.135161 z"
         id="path12"
         transform="matrix(0.57620512,0,0,0.57620512,44.688429,29.493687)" /><path
         style="fill:#111512;fill-opacity:1;stroke:#ffffff;stroke-width:0.576205;stroke-linecap:round;stroke-linejoin:round;stroke-dasharray:none;stroke-opacity:1"
         d="m 164.06977,40.58286 c 0.42753,1.972257 -2.08979,2.488402 -3.29235,1.407801 -1.71229,-1.538617 -0.98644,-4.173368 0.79985,-5.312773 1.19887,-0.764714 2.8243,-0.727921 4.0058,0.03696 0.39168,0.253562 0.74466,0.580234 1.05173,0.930427 1.97962,2.257643 0.37712,4.927183 0.20249,7.477497 -0.13746,2.007339 1.19243,4.003595 3.19667,4.425409 1.64888,0.347019 3.51169,-0.377142 4.02497,-2.110946 0.45172,-1.525865 -0.36791,-3.591411 -2.24461,-3.366122 -2.0031,0.240463 -1.57627,3.099764 0.53411,2.475944 l 0.089,0.08902 c -0.67735,1.384036 -2.24852,1.667009 -3.23913,0.354768 -0.60337,-0.799275 -0.66387,-1.952562 -0.2404,-2.847266 1.7388,-3.673642 6.87271,-1.424383 7.03096,2.047409 0.073,1.601175 -0.94635,2.683602 -2.03422,3.676451 -0.24913,0.22737 -0.38118,0.586956 -0.65142,0.780275 -0.51224,0.366438 -1.21854,0.457178 -1.75597,0.834477 -0.60546,0.425057 -1.01675,1.043156 -1.60232,1.474151 -0.3101,-1.076456 -1.04927,-2.065442 -1.72912,-2.937588 -1.90266,-2.440823 -5.02725,-4.050098 -8.15186,-3.913279 -4.75337,0.208141 -8.9908,4.584776 -8.9908,9.343366 0.39544,-0.16442 1.63685,-0.339185 1.87047,-0.591253 0.33508,-0.361526 0.39839,-1.111001 0.68879,-1.545174 0.90782,-1.357256 2.62077,-2.367638 4.29511,-2.210336 2.48128,0.233112 4.9012,2.240142 5.2379,4.791852 0.39433,2.988356 -1.3741,5.811499 -1.40979,8.812764 -0.0572,4.812798 1.42721,9.583759 3.88121,13.708744 0.96166,1.616485 2.18573,2.998261 3.23987,4.539909 -3.0774,1.262559 -6.18444,1.107235 -9.43589,1.068556 -1.93657,-0.02304 -3.92915,0.06001 -5.60812,-1.088132 -3.25588,-2.226483 -4.02822,-6.735493 -3.63496,-10.395509 0.2514,-2.339787 1.15896,-4.684856 2.39441,-6.676336 0.6419,-1.034702 2.04813,-2.366633 2.26481,-3.560713 0.22447,-1.237045 -1.32586,-2.275713 -2.35953,-2.492499 l 1.15724,0.979196 v 0.178036 c -1.29396,0.671257 -2.37933,2.287721 -3.31777,3.382677 -2.67521,3.121372 -5.07619,6.89724 -5.99799,10.949191 -0.30796,1.353697 -0.66599,3.101394 -0.20915,4.450891 l 3.73875,-2.937588 c 0.52023,2.682651 1.5849,5.335332 3.82776,7.041405 2.42711,1.846218 5.27811,1.949395 8.18964,1.949395 4.29015,0 8.01751,-0.135624 11.92839,-2.136428 -1.02677,-1.342591 -2.49094,-2.364682 -3.5397,-3.738748 -2.41912,-3.169505 -3.31467,-6.941456 -3.31467,-10.860174 0,-1.071142 -0.0275,-2.139215 0.0739,-3.204641 0.0393,-0.412903 -0.0658,-0.886277 0.23175,-1.226261 0.4679,-0.534639 1.62065,-0.691762 2.27586,-0.910167 1.75097,-0.583658 3.45682,-1.258392 5.16303,-1.958392 -0.87356,-2.368116 -1.71894,-4.488863 -2.04741,-7.032407 0.65553,-0.135429 0.91135,-0.87527 1.35045,-1.327232 0.78296,-0.805898 2.00421,-1.221273 3.10044,-0.878567 1.10037,0.343999 1.96405,1.404388 2.02872,2.56187 0.0534,0.956143 -0.71247,2.243386 -1.76167,2.289666 -0.64386,0.0284 -1.57839,-0.735609 -1.02927,-1.386301 0.26669,-0.316007 0.76097,-0.241208 0.93909,-0.645994 0.38881,-0.883609 -0.76906,-1.259017 -1.42312,-1.100085 -2.4916,0.605435 -1.42922,4.249993 0.44509,4.87077 2.1551,0.713773 4.37929,-1.047415 4.61347,-3.226896 0.24486,-2.278723 -1.01057,-4.332164 -3.18919,-5.074015 3.23448,-3.243402 2.41194,-9.560451 -2.75955,-10.299346 -1.21007,-0.172891 -2.35081,0.075 -3.47169,0.507386 0,-2.813194 -1.30102,-5.438427 -4.09482,-6.436139 -3.54761,-1.266912 -7.74014,1.574617 -7.46953,5.456943 0.1372,1.968454 1.59506,4.033446 3.64176,4.335087 2.62893,0.387448 5.18924,-1.978956 4.19483,-4.691158 -0.15471,-0.421966 -0.38563,-0.829853 -0.72698,-1.127969 -0.27452,-0.239756 -0.61856,-0.433918 -0.97535,-0.516253 -0.9866,-0.227679 -2.03078,0.1937 -2.36179,1.199133 -0.25184,0.764975 0.13216,1.943983 1.11554,1.836541 0.43944,-0.04801 0.87106,-0.283114 1.24625,-0.501274 m -14.95499,4.005802 c -1.90585,0.150424 -3.64232,1.029279 -4.44739,2.84857 -1.01521,2.294175 0.18244,5.487402 2.93408,5.689104 2.13174,0.156265 4.47239,-2.18801 2.95538,-4.261315 -0.75709,-1.034718 -3.37396,-1.222805 -2.972,0.61955 0.23855,1.093348 1.8496,0.07205 1.73983,0.890662 -0.2541,1.895013 -2.73572,1.073527 -3.22593,-0.178449 -0.72118,-1.841838 0.83529,-3.674685 2.65996,-3.890683 0.60162,-0.07122 1.11396,0.217411 1.69133,0.29968 1.98763,0.283212 4.0379,0.89979 5.59171,-0.859958 0.32343,-0.366291 0.57628,-0.780552 0.72595,-1.246179 0.49261,-1.532591 0.0879,-3.444322 -1.42168,-4.243733 -1.36558,-0.723145 -3.34557,0.0096 -3.28184,1.751234 0.0719,1.96445 1.96852,1.362346 2.92577,0.534107 0.84078,2.652333 -2.59477,3.333859 -4.03424,1.511999 -2.69196,-3.407083 2.12304,-7.605145 5.45853,-5.250747 0.22127,-0.210451 0.29179,-0.4224 0.38664,-0.712143 0.0861,-0.26294 0.33176,-0.683308 0.21533,-0.960239 -0.39278,-0.934269 -2.64173,-0.927695 -3.45054,-0.907831 -3.82765,0.09401 -6.66892,5.121024 -4.45089,8.366371 m 8.27865,8.949311 c -1.73057,0.412196 -1.09013,3.149185 0.62313,2.753234 1.73707,-0.401455 1.11763,-3.167853 -0.62313,-2.753234"
         id="path7-7-7" /><path
         style="display:inline;fill:#108e4c;fill-opacity:1;stroke:none;stroke-width:1.44105;stroke-linejoin:round;stroke-dasharray:none;stroke-opacity:1;paint-order:markers stroke fill"
         d="m -211.83506,316.68638 c -0.82017,-0.25939 -1.2759,-0.51292 -4.09111,-2.27594 -6.57889,-4.12002 -12.81056,-9.269 -17.05832,-14.09461 -8.05438,-9.15008 -12.96221,-19.96172 -14.68572,-32.35169 -0.28485,-2.04778 -0.32309,-2.96656 -0.34183,-8.21401 -0.0118,-3.30129 -0.10332,-6.94921 -0.20744,-8.2673 -0.21537,-2.72674 -0.14018,-4.76798 0.22336,-6.06365 0.5481,-1.95339 1.89506,-2.68868 7.52775,-4.10926 0.81661,-0.20596 4.06886,-1.34128 7.22723,-2.52295 9.10971,-3.4083 12.1914,-4.70364 15.54645,-6.53469 3.78154,-2.06382 5.54532,-2.84614 6.9081,-3.06406 0.89544,-0.14318 2.22489,0.2912 4.41981,1.44413 2.69783,1.41708 5.3168,2.57571 10.59948,4.68916 6.3288,2.53198 13.90583,4.98676 18.47401,5.98514 2.76701,0.60474 3.58134,1.01141 4.00927,2.00218 0.2396,0.55474 0.24744,1.20902 0.13234,11.03735 -0.0673,5.7462 -0.16125,10.67461 -0.20878,10.95201 -0.0475,0.27741 -0.21642,1.41224 -0.37531,2.52185 -2.02329,14.12937 -9.33495,27.30377 -21.2232,38.24067 -7.68125,7.06656 -10.57604,9.19011 -14.15934,10.38696 -1.4352,0.47936 -1.84261,0.51516 -2.71675,0.23871 z m 2.09989,-9.8172 c 0.74732,-0.25718 1.7399,-0.94013 4.84758,-3.33539 5.21941,-4.02288 9.09792,-7.76444 12.4926,-12.05147 6.64685,-8.3941 10.44659,-18.76542 10.97221,-29.94843 0.0498,-1.06033 0.21277,-2.933 0.36208,-4.1615 0.54487,-4.48322 0.50357,-6.13178 -0.1874,-7.48051 -0.4636,-0.90493 -1.41791,-1.45159 -3.53523,-2.02513 -1.92509,-0.52147 -7.61924,-2.45296 -11.56039,-3.92136 -1.4757,-0.54982 -4.17081,-1.7332 -6.03658,-2.65057 -1.85384,-0.9115 -4.02623,-1.89343 -4.82753,-2.18207 -1.31231,-0.4727 -1.60708,-0.52584 -2.97002,-0.53545 -1.75036,-0.0123 -2.3618,0.18822 -5.08959,1.66949 -3.20287,1.73924 -14.619,6.3521 -19.55054,7.89968 -4.66862,1.46506 -5.17478,2.14714 -5.29581,7.13639 -0.13076,5.39048 0.75718,13.39893 2.05538,18.53784 2.72756,10.79692 9.45191,20.92806 18.63534,28.07665 1.77836,1.38431 6.44403,4.53487 7.27319,4.91132 0.73301,0.33279 1.56307,0.3536 2.41471,0.0605 z"
         id="path8-6-5"
         transform="matrix(0.26458333,0,0,0.26458333,232.18784,1.0022497)" /><path
         style="display:inline;fill:#108e4c;fill-opacity:1;stroke:none;stroke-width:1.44105;stroke-linejoin:round;stroke-dasharray:none;stroke-opacity:1;paint-order:markers stroke fill"
         d="m -214.42896,287.1703 c -0.23777,-0.0843 -0.62686,-0.28476 -0.86463,-0.44547 -0.58171,-0.39318 -6.14691,-5.90345 -9.96806,-9.86967 -3.47903,-3.61111 -3.89981,-4.22966 -3.7482,-5.5098 0.24257,-2.04815 2.41125,-4.1683 4.26788,-4.17239 1.16285,-0.003 1.77943,0.43147 4.40469,3.10062 2.5153,2.55736 5.61674,5.51246 6.28438,5.98787 l 0.37617,0.26785 1.08046,-1.40047 c 0.59425,-0.77026 2.04619,-2.43174 3.22652,-3.69216 1.18034,-1.26043 3.14524,-3.4004 4.36646,-4.75548 1.22121,-1.35509 2.91083,-3.20954 3.75471,-4.12101 0.84387,-0.91147 2.26399,-2.51143 3.15582,-3.55547 2.36421,-2.76776 3.61774,-3.64041 5.23819,-3.64664 2.26705,-0.009 4.43665,1.92743 4.43665,3.95925 0,1.51591 -0.96017,2.9921 -3.9872,6.13002 -1.1824,1.22572 -3.4406,3.68765 -5.01821,5.47096 -3.65117,4.12721 -5.3352,5.97696 -8.13404,8.93454 -1.23757,1.30775 -2.80729,3.05864 -3.48828,3.89084 -2.57128,3.14228 -3.86415,3.96522 -5.38331,3.42661 z"
         id="path9-3-3"
         transform="matrix(0.26458333,0,0,0.26458333,232.18784,1.0022497)" /><text
         xml:space="preserve"
         style="font-weight:bold;font-size:11.8062px;font-family:Sans;-inkscape-font-specification:'Sans Bold';text-align:center;letter-spacing:2.11667px;writing-mode:lr-tb;direction:ltr;text-anchor:middle;fill:#108e4c;fill-opacity:1;stroke:none;stroke-width:0.790594;stroke-linejoin:round;stroke-dasharray:none;stroke-opacity:1;paint-order:markers stroke fill"
         x="164.20416"
         y="95.754692"
         id="text10-17-8"><tspan
           id="tspan10-5-8"
           style="font-style:normal;font-variant:normal;font-weight:bold;font-stretch:normal;font-family:'Noto Sans Telugu UI';-inkscape-font-specification:'Noto Sans Telugu UI Bold';letter-spacing:2.11667px;stroke-width:0.790594"
           x="165.2625"
           y="95.754692">perms</tspan></text><text
         xml:space="preserve"
         style="font-weight:bold;font-size:1.58099px;font-family:Sans;-inkscape-font-specification:'Sans Bold';text-align:center;letter-spacing:1.054px;writing-mode:lr-tb;direction:ltr;text-anchor:middle;fill:#ffffff;fill-opacity:1;stroke:none;stroke-width:0.393677;stroke-linejoin:round;stroke-dasharray:none;stroke-opacity:1;paint-order:markers stroke fill"
         x="164.31847"
         y="100.90952"
         id="text10-1-9-3"><tspan
           id="tspan10-0-6-1"
           style="font-style:normal;font-variant:normal;font-weight:bold;font-stretch:normal;font-size:1.58099px;font-family:'Noto Sans Telugu UI';-inkscape-font-specification:'Noto Sans Telugu UI Bold';letter-spacing:1.054px;fill:#ffffff;fill-opacity:1;stroke-width:0.393677"
           x="164.84547"
           y="100.90952">PERMISSION MANAGEMENT</tspan></text><path
         style="fill:#ff6600;stroke:#ffffff;stroke-width:0.858051;stroke-linejoin:round;stroke-dasharray:none;stroke-opacity:1;paint-order:markers stroke fill"
         d="m -79.095695,53.423914 -6.905302,3.547936 6.844192,1.773966 c 3.09362,-0.640697 2.385442,-4.955537 0.06112,-5.321902 z"
         id="path4-2-8"
         transform="translate(232.18784,1.0022497)" /></g></g></svg>
